<svg width="210" height="54" viewBox="0 0 210 54" fill="none" xmlns="http://www.w3.org/2000/svg">
<path fill-rule="evenodd" clip-rule="evenodd" d="M72.9567 15.1704C76.0364 15.1485 79.3683 16.113 81.6699 18.316L79.6423 21.5272C77.9763 20.1134 75.4775 19.0722 73.1868 19.0941C68.0137 19.138 65.3285 22.9191 65.3724 27.2812C65.4162 31.709 68.2658 35.7094 73.3732 35.6546C75.894 35.6327 78.4038 34.3833 80.1793 32.5968L82.459 35.6766C80.4533 37.7589 77.4503 39.5454 73.2416 39.5893C65.8437 39.655 61.0213 34.3394 60.9665 27.3908C60.9007 20.5408 65.8656 15.2362 72.9567 15.1704ZM90.9858 36.2026C93.3422 36.1807 94.8438 33.7695 94.8218 31.709V31.2487H94.0875C91.9613 31.2706 88.3883 31.5994 88.4102 33.9997C88.4212 35.1286 89.298 36.2246 90.9858 36.2026ZM94.0327 28.3553H94.767V28.1142C94.7451 25.8893 93.3203 25.1331 91.5558 25.155C89.9008 25.1659 88.213 25.8893 86.8649 26.8319L85.2757 23.8179C86.6567 22.678 89.3638 21.6807 91.8846 21.6587C96.2905 21.6149 98.9318 24.059 98.9757 28.3443L99.0743 38.9536L95.1616 38.9865V37.5507C95.1397 37.1342 95.1725 36.7287 95.2383 36.3232H95.1726C94.1642 38.1316 92.1476 39.4139 89.857 39.4358C86.8101 39.4687 84.2674 37.485 84.2455 34.3942C84.2016 29.3088 90.2954 28.3882 94.0437 28.3553M103.173 15.302L107.349 15.2691L107.513 32.9694C107.524 34.8326 108.16 35.293 109.256 35.282C109.421 35.282 109.651 35.282 109.881 35.2491L109.914 38.9426C109.618 38.9755 109.157 39.0522 108.588 39.0522C106.264 39.0741 103.382 38.5042 103.338 33.649L103.173 15.3239V15.302ZM112.752 15.2143L116.928 15.1814L117.082 32.8818C117.092 34.745 117.739 35.2053 118.824 35.1943C118.989 35.1943 119.219 35.1943 119.449 35.1614L119.482 38.8549C119.186 38.8878 118.726 38.9645 118.156 38.9645C115.832 38.9865 112.95 38.4165 112.906 33.5613L112.741 15.2362L112.752 15.2143ZM123.252 25.3632L121.06 25.3851L121.027 22.0204L123.318 21.9985L123.274 17.1432L127.384 17.1104L127.428 21.9656L131.275 21.9327L131.308 25.2975L127.461 25.3303L127.526 31.9502C127.548 34.745 129.74 35.1286 130.902 35.1176C131.132 35.1176 131.33 35.1176 131.658 35.0409L131.691 38.7344C131.362 38.7673 130.957 38.844 130.398 38.844C128.042 38.8659 123.362 38.2083 123.307 32.5201L123.241 25.3742L123.252 25.3632ZM142.969 35.3587C145.72 35.3368 147.989 33.1886 147.956 30.0212C147.934 26.8976 145.621 24.7495 142.87 24.7823C140.119 24.8043 137.884 26.9853 137.916 30.1198C137.949 33.2763 140.218 35.3916 142.969 35.3587ZM142.805 21.1875C147.978 21.1436 152.153 24.7933 152.197 29.9883C152.241 35.2053 148.131 38.9097 142.991 38.9536C137.851 38.9974 133.675 35.3806 133.631 30.1527C133.587 24.9687 137.697 21.2313 142.805 21.1875ZM155.441 21.4724L159.65 21.4395L159.738 31.4898C159.76 33.5503 160.297 34.9422 162.39 34.9203C165.437 34.8984 167.103 32.1803 167.081 29.1554L167.015 21.3738L171.191 21.3409L171.344 38.3069L167.3 38.3398L167.278 36.3451C167.278 35.7094 167.366 35.1834 167.366 35.1834H167.3C166.522 36.926 164.352 38.7673 161.469 38.8001C157.82 38.833 155.584 37.0246 155.54 32.3995L155.441 21.4943V21.4724ZM183.883 20.8148C186.173 20.7929 188.76 21.5382 190.404 23.2808L188.541 26.1962C187.466 25.144 185.801 24.3878 184.146 24.4097C181.033 24.4426 179.027 26.8209 179.049 29.7143C179.071 32.5749 181.121 35.019 184.365 34.9861C186.151 34.9751 188.069 34.0216 189.319 32.7831L190.974 35.7642C189.395 37.474 186.754 38.559 184.036 38.5919C178.435 38.6467 174.819 34.7121 174.775 29.791C174.731 24.9687 178.271 20.8806 183.883 20.8258M193.834 14.48L198.043 14.4471L198.12 22.6999C198.12 23.5329 198.032 24.1357 198.032 24.1357H198.098C198.909 22.5027 201.013 20.6833 203.939 20.6614C207.688 20.6285 209.858 22.5684 209.902 27.062L210 37.9672L205.792 38.0001L205.704 27.9498C205.682 25.8893 205.145 24.4974 203.019 24.5193C200.07 24.5412 198.163 26.9634 198.196 30.1856L198.262 38.0658L194.053 38.0987L193.845 14.48H193.834Z" fill="white"/>
<path fill-rule="evenodd" clip-rule="evenodd" d="M27.1328 23.5438L41.8301 38.022C48.5048 29.6047 48.4828 17.4391 41.4356 8.92322L27.1328 23.5329V23.5438Z" fill="#1EB0CD"/>
<path fill-rule="evenodd" clip-rule="evenodd" d="M17.7402 40.1592L23.7572 34.1202L29.7742 40.1592H17.7511H17.7402ZM23.7134 27.0401L4.71973 46.4393C16.1181 55.5908 32.2073 55.262 43.1564 46.1981L23.7134 27.0401Z" fill="white"/>
<path fill-rule="evenodd" clip-rule="evenodd" d="M38.1696 5.72296C29.0728 -1.56543 15.7674 -0.907828 7.43784 7.60807C-0.902702 16.124 -1.31918 29.4732 6.10072 38.4823L38.1696 5.72296Z" fill="#1EB0CD"/>
</svg>
