<svg width="45" height="71" viewBox="0 0 45 71" fill="none" xmlns="http://www.w3.org/2000/svg">
<g id="Group 268">
<path id="Vector" d="M40.8338 55.0641C40.4085 54.6748 39.7557 54.6449 39.3006 54.9923C39.1089 55.136 34.5272 58.5258 30.2031 55.0042C29.7539 54.6389 29.1011 54.6449 28.6639 55.0282C28.604 55.0821 28.041 55.5852 27.3463 56.5135C26.6755 55.4834 25.879 54.5071 24.9207 53.6267C24.4955 53.2375 23.8427 53.2075 23.3815 53.5549C23.094 53.7765 16.2425 58.8672 9.72636 53.5609C9.27718 53.1955 8.62437 53.2015 8.18118 53.5848C7.93562 53.8004 2.10822 58.981 1.9585 69.1805C1.9585 69.5039 2.07828 69.8093 2.30586 70.0369C2.53345 70.2645 2.83889 70.3962 3.15632 70.3962H29.5084C30.1552 70.3962 30.6822 69.8752 30.7062 69.2344C30.7062 69.1325 30.7302 68.4498 30.6583 67.4017H43.7984C44.4452 67.4017 44.9722 66.8866 44.9962 66.2398C45.0082 65.9463 45.1819 59.0349 40.8278 55.0522L40.8338 55.0641ZM4.40804 68.0126C4.82728 61.6222 7.75595 57.6155 9.09751 56.0943C15.3202 60.4304 21.6686 57.4238 23.9565 56.0463C27.49 59.8434 28.1728 65.569 28.2986 68.0066H4.40804V68.0126ZM30.4008 65.018C30.1193 63.2093 29.5982 61.0233 28.628 58.8852C28.9753 58.3162 29.3167 57.8551 29.5922 57.5257C33.4432 60.0231 37.5458 58.8552 39.8635 57.5017C41.9178 59.8794 42.4389 63.2632 42.5706 65.018H30.4008Z" fill="white"/>
<path id="Vector_2" d="M14.3862 23.9087L14.0928 27.6279C14.0568 28.0711 14.3144 28.4904 14.7216 28.664C14.8534 28.718 14.9851 28.7419 15.1229 28.7419C15.4164 28.7419 15.7038 28.6161 15.9015 28.3886L19.7944 23.9087H23.2501V26.8494C23.2501 28.3227 24.4479 29.5145 25.9153 29.5145H34.2221L36.5819 32.2336C36.7555 32.4312 37.0071 32.545 37.2586 32.545C37.3724 32.545 37.4922 32.521 37.606 32.4731C37.9653 32.3234 38.1869 31.9581 38.157 31.5748L37.9953 29.5205H42.2655C43.7329 29.5205 44.9307 28.3227 44.9307 26.8553V16.3205C44.9307 14.8532 43.7329 13.6554 42.2655 13.6554H36.4501V4.65972C36.4501 2.53359 34.7192 0.802734 32.5931 0.802734H4.01909C1.89296 0.802734 0.162109 2.53359 0.162109 4.65972V20.0457C0.162109 22.1719 1.89296 23.9027 4.01909 23.9027H14.3862V23.9087ZM36.6657 20.1056V15.4461H42.2655C42.7446 15.4461 43.1339 15.8354 43.1339 16.3145V26.8494C43.1339 27.3285 42.7446 27.7178 42.2655 27.7178H37.0251C36.7735 27.7178 36.5339 27.8256 36.3663 28.0052C36.1986 28.1849 36.1087 28.4365 36.1327 28.682L36.1566 28.9934L35.3122 28.0232C35.1445 27.8256 34.8929 27.7118 34.6354 27.7118H25.9212C25.4421 27.7118 25.0528 27.3225 25.0528 26.8434V24.0405H32.7309C34.9049 24.0405 36.6717 22.2737 36.6717 20.0996L36.6657 20.1056ZM2.22835 20.0517V4.65972C2.22835 3.67152 3.03089 2.86898 4.0131 2.86898H32.5871C33.5753 2.86898 34.3779 3.67152 34.3779 4.65972V20.0457C34.3779 21.0279 33.5753 21.8305 32.5871 21.8305H19.3213C19.0218 21.8305 18.7343 21.9622 18.5427 22.1838L16.3986 24.6513L16.5303 22.9445C16.5543 22.657 16.4525 22.3755 16.2608 22.1599C16.0632 21.9503 15.7877 21.8305 15.5002 21.8305H4.01909C3.03089 21.8305 2.23434 21.0279 2.23434 20.0457L2.22835 20.0517Z" fill="white"/>
<path id="Vector_3" d="M34.5994 54.986C36.7974 54.986 38.8637 54.1295 40.4208 52.5664C41.978 51.0092 42.8345 48.937 42.8345 46.739C42.8345 42.1932 39.1332 38.498 34.5934 38.498C32.3954 38.498 30.3232 39.3544 28.766 40.9176C28.2929 41.3907 27.8976 41.9117 27.5562 42.4627C27.5922 42.0914 27.6101 41.7201 27.6101 41.3428C27.6101 35.1261 22.5494 30.0713 16.3327 30.0713C13.3261 30.0713 10.4933 31.2452 8.36116 33.3773C6.22904 35.5094 5.05518 38.3422 5.05518 41.3488C5.05518 47.5655 10.116 52.6203 16.3327 52.6203C19.3392 52.6203 22.172 51.4464 24.2982 49.3143C25.1366 48.4698 25.8254 47.5176 26.3524 46.4934C26.3524 46.5773 26.3405 46.6611 26.3405 46.745C26.3405 51.2847 30.0417 54.98 34.5815 54.98L34.5994 54.986ZM30.4669 42.6125C31.5749 41.5045 33.0423 40.8936 34.5994 40.8936C37.8216 40.8936 40.4448 43.5168 40.4448 46.739C40.4448 48.2961 39.8339 49.7635 38.7319 50.8715C37.6299 51.9794 36.1626 52.5843 34.6054 52.5843C31.3833 52.5843 28.7601 49.9611 28.7601 46.739C28.7601 45.1818 29.3709 43.7145 30.4729 42.6065L30.4669 42.6125ZM22.6212 47.6254C20.9443 49.3023 18.7163 50.2306 16.3506 50.2306C11.4575 50.2306 7.46878 46.2479 7.46878 41.3548C7.46878 38.9831 8.39111 36.7551 10.074 35.0782C11.751 33.4012 13.9849 32.4729 16.3506 32.4729C21.2437 32.4729 25.2265 36.4557 25.2325 41.3488C25.2325 43.7145 24.3101 45.9484 22.6272 47.6254H22.6212Z" fill="white"/>
</g>
</svg>
