<svg width="62" height="69" viewBox="0 0 62 69" fill="none" xmlns="http://www.w3.org/2000/svg">
<g id="Group 273">
<path id="Vector" d="M19.687 68.5911C28.2663 68.5911 35.5922 63.0589 38.2719 55.3872C39.6117 55.4521 40.8219 55.4521 41.816 55.4521C47.8669 55.4521 61.9352 54.8038 61.9352 48.8825V48.8393V48.7961V40.8867C61.9784 40.7138 62 40.5193 62 40.3465C62 40.1736 61.9784 40.0007 61.9352 39.8278V33.3231C61.9784 33.1502 62 32.9773 62 32.7828C62 32.61 61.9784 32.4371 61.9352 32.2642V25.0247C61.9784 24.8519 62 24.679 62 24.4845C62 24.1819 61.9352 23.8794 61.8271 23.5985C61.8919 23.3391 61.9352 23.0582 61.9352 22.7773V22.7341C61.9352 22.7341 61.9352 22.7124 61.9352 22.6908V14.7815C61.9784 14.6086 62 14.4141 62 14.2412C62 14.0683 61.9784 13.8954 61.9352 13.7226V6.4831C61.9784 6.31021 62 6.11572 62 5.94284C62 5.61868 61.9352 5.31614 61.8271 5.0352C61.6542 4.43011 61.2653 3.91147 60.7682 3.60892C56.6623 0.129662 43.5664 0 41.8376 0C40.1088 0 27.0129 0.129662 22.9069 3.60892C22.4099 3.93308 22.0209 4.43011 21.848 5.0352C21.74 5.31614 21.6751 5.61868 21.6751 5.94284C21.6751 6.13733 21.6751 6.31021 21.74 6.4831V13.7226C21.6968 13.8954 21.6751 14.0467 21.6751 14.2412C21.6751 14.4357 21.6751 14.6086 21.74 14.7815V22.6908V22.7341C21.74 22.7341 21.74 22.7557 21.74 22.7773C21.74 23.0582 21.7832 23.3391 21.848 23.5985C21.74 23.8794 21.6751 24.1603 21.6751 24.4845C21.6751 24.679 21.6751 24.8519 21.74 25.0247V29.3036C21.0701 29.2388 20.4001 29.1955 19.7302 29.1955C8.83862 29.1955 0 38.0342 0 48.8825C0 59.7309 8.83862 68.5695 19.687 68.5695V68.5911ZM59.6445 48.7313C59.6445 48.7313 59.6445 48.8393 59.6445 48.8825C59.6445 48.8825 59.6445 48.9258 59.6445 48.9474C59.5364 51.1516 51.5838 52.9453 41.8376 52.9453C40.8651 52.9453 39.9143 52.9237 38.985 52.8804C39.2443 51.5838 39.3956 50.2656 39.3956 48.9041C39.3956 48.5584 39.3956 48.2126 39.374 47.8669C40.2816 47.8885 41.1244 47.9101 41.8376 47.9101C46.3757 47.9101 55.4089 47.5427 59.6661 44.863V48.7313H59.6445ZM59.6445 41.1677C59.6445 41.1677 59.6445 41.2757 59.6445 41.3189C59.6445 41.3189 59.6445 41.3621 59.6445 41.3838C59.5364 43.588 51.5838 45.3817 41.8376 45.3817C40.8867 45.3817 39.9791 45.3817 39.0715 45.3384C38.6825 43.2422 37.9693 41.2757 36.9969 39.4821C38.8337 39.5901 40.541 39.6333 41.8592 39.6333C46.3974 39.6333 55.4305 39.2659 59.6877 36.5863V41.1893L59.6445 41.1677ZM59.6445 22.6044C59.6445 22.6044 59.6445 22.7124 59.6445 22.7557C59.6445 22.7557 59.6445 22.7989 59.6445 22.8205C59.5364 25.0247 51.5838 26.8184 41.8376 26.8184C32.0913 26.8184 24.1387 25.0247 24.0307 22.8205C24.0307 22.7773 24.0307 22.7341 24.0307 22.6908C24.0307 22.6692 24.0307 22.6476 24.0307 22.6044V18.0014C28.2663 20.6811 37.321 21.0484 41.8592 21.0484C46.3974 21.0484 55.4305 20.6811 59.6877 18.0014V22.6044H59.6445ZM41.8376 2.85256C51.9512 2.85256 58.2182 4.73266 59.2771 5.89962C58.2182 7.06657 51.9512 8.94667 41.8376 8.94667C31.7239 8.94667 25.457 7.06657 24.398 5.89962C25.457 4.73266 31.7239 2.85256 41.8376 2.85256ZM41.8376 11.8641C43.4367 11.8641 54.6957 11.756 59.6661 9.0115V14.306C59.6661 14.306 59.6661 14.4141 59.6661 14.4573C59.6661 14.4573 59.6661 14.5005 59.6661 14.5221C59.558 16.7264 51.6054 18.52 41.8592 18.52C32.1129 18.52 24.1603 16.7264 24.0523 14.5221C24.0523 14.4789 24.0523 14.4357 24.0523 14.3925C24.0523 14.3709 24.0523 14.3493 24.0523 14.306V9.0115C29.0227 11.756 40.26 11.8641 41.8808 11.8641H41.8376ZM41.8376 30.4273C43.4367 30.4273 54.6957 30.3193 59.6661 27.5748V32.8693C59.6661 32.8693 59.6661 32.9773 59.6661 33.0206C59.6661 33.0206 59.6661 33.0638 59.6661 33.0854C59.558 35.2896 51.6054 37.0833 41.8592 37.0833C39.5253 37.0833 37.2778 36.9753 35.2248 36.7808C32.4587 33.2583 28.5472 30.7083 24.0307 29.6926V27.5964C29.001 30.3409 40.2384 30.4489 41.8592 30.4489L41.8376 30.4273ZM19.7086 31.7239C29.1739 31.7239 36.8888 39.4172 36.8888 48.9041C36.8888 58.3911 29.1955 66.0843 19.7086 66.0843C10.2217 66.0843 2.52841 58.3911 2.52841 48.9041C2.52841 39.4172 10.2217 31.7239 19.7086 31.7239Z" fill="white"/>
<path id="Vector_2" d="M19.6862 62.1732C27.0121 62.1732 32.9549 56.2088 32.9549 48.9045C32.9549 41.6002 27.0121 35.6357 19.6862 35.6357C12.3603 35.6357 6.41748 41.5786 6.41748 48.9045C6.41748 56.2304 12.3603 62.1732 19.6862 62.1732ZM19.6862 37.3213C26.0829 37.3213 31.2693 42.5294 31.2693 48.9045C31.2693 55.2795 26.0613 60.4876 19.6862 60.4876C13.3112 60.4876 8.10309 55.2795 8.10309 48.9045C8.10309 42.5294 13.3112 37.3213 19.6862 37.3213Z" fill="white"/>
<path id="Vector_3" d="M15.5171 55.1292C15.9709 55.4534 16.5544 55.7127 17.2243 55.9072C17.462 55.972 17.6997 56.0369 17.9374 56.0801V57.3335C17.9374 57.7873 18.3048 58.1763 18.7802 58.1763H20.9413C21.3951 58.1763 21.7841 57.8089 21.7841 57.3335V55.864C22.562 55.5831 23.232 55.1292 23.729 54.5241C24.4421 53.703 24.8311 52.6657 24.8311 51.5635C24.8311 50.9801 24.7447 50.4398 24.5718 49.9644C24.3125 49.2296 23.8371 48.5813 23.1887 48.0411C22.6485 47.5872 21.957 47.1983 21.0709 46.8309C21.0493 46.8309 21.0061 46.8093 20.9845 46.7877C20.0769 46.4203 19.7095 46.1826 19.5582 46.0529C19.4934 46.0097 19.4718 45.9665 19.4502 45.9232C19.4502 45.9232 19.4502 45.88 19.4502 45.8152C19.4502 45.772 19.4502 45.6855 19.515 45.6207C19.623 45.5126 19.8608 45.4478 20.1849 45.4478C20.5955 45.4478 20.9413 45.5126 21.3086 45.6207C21.5896 45.7071 21.8057 45.8368 21.9786 45.9232L22.454 46.2042C22.6701 46.3338 22.9294 46.3554 23.1455 46.269C23.3832 46.1826 23.5561 46.0097 23.6426 45.772L24.4638 43.6109C24.615 43.222 24.4638 42.7897 24.0964 42.5953L23.7506 42.4008C23.1887 42.0766 22.562 41.8389 21.8921 41.6876V40.4991C21.8921 40.0452 21.5247 39.6562 21.0493 39.6562H18.9099C18.4345 39.6562 18.0671 40.0236 18.0671 40.4991V41.9253C17.3756 42.1847 16.7705 42.5736 16.2951 43.0923C15.5603 43.8703 15.1497 44.9292 15.1497 46.0313C15.1497 46.6148 15.2578 47.1766 15.4739 47.6737C15.7764 48.3652 16.2951 48.9703 17.0082 49.4889C17.5701 49.8779 18.24 50.2237 19.1692 50.5911C19.9256 50.8936 20.2281 51.1313 20.3578 51.261C20.4442 51.3474 20.4875 51.4123 20.5091 51.4555C20.5091 51.4987 20.5523 51.5635 20.5523 51.6716C20.5523 51.8445 20.5091 51.9309 20.3794 52.039C20.2065 52.1902 19.904 52.2767 19.5582 52.2767C18.7154 52.3199 17.9374 51.9525 17.5052 51.6716L17.0082 51.3474C16.7921 51.1962 16.5328 51.1745 16.2734 51.2394C16.0141 51.3042 15.8412 51.5203 15.7548 51.758L14.9768 53.9407C14.8472 54.2864 14.9768 54.697 15.2794 54.9131L15.5603 55.1292H15.5171ZM16.9434 53.314C17.7213 53.7246 18.6506 53.9623 19.515 53.9623C20.293 53.9623 20.9413 53.7462 21.4383 53.3356C21.9353 52.925 22.1947 52.3415 22.1947 51.6932C22.1947 51.369 22.1298 51.0881 22.0218 50.8288C21.9137 50.5695 21.7409 50.3317 21.5248 50.1156C21.1358 49.7267 20.5739 49.3809 19.7743 49.0567C18.9747 48.7542 18.4129 48.4516 17.9807 48.1491C17.5052 47.8033 17.2027 47.4576 17.0082 47.047C16.8785 46.766 16.8137 46.4203 16.8137 46.0745C16.8137 45.4046 17.0514 44.7563 17.5052 44.2809C17.8942 43.8703 18.4561 43.5677 19.0828 43.3948C19.4502 43.3084 19.7311 42.9626 19.7311 42.5736V41.3851H20.1849V42.444C20.1849 42.8762 20.5091 43.2436 20.9413 43.2868C21.5464 43.3516 22.1082 43.5029 22.6053 43.7406L22.3892 44.3025C22.2163 44.216 22.0218 44.1296 21.8057 44.0648C21.287 43.8919 20.7252 43.8054 20.1417 43.8054C19.3637 43.8054 18.737 44.0215 18.3048 44.4537C17.9374 44.8211 17.7213 45.3182 17.7213 45.8368C17.7213 46.161 17.7862 46.4203 17.8942 46.658C18.0023 46.8957 18.1752 47.1118 18.4129 47.3279C18.7802 47.6521 19.3853 47.9978 20.3578 48.3868C21.1142 48.6894 21.6544 49.0135 22.0866 49.3593C22.4972 49.705 22.7998 50.094 22.951 50.5478C23.0591 50.8504 23.1239 51.1962 23.1239 51.5851C23.1239 52.2767 22.8862 52.925 22.4324 53.422C22.0218 53.8974 21.4167 54.2432 20.7036 54.4161C20.3362 54.5025 20.0552 54.8483 20.0552 55.2373V56.4907H19.5798V55.3453C19.5798 54.9131 19.2557 54.5458 18.8235 54.5025C18.4345 54.4593 18.0455 54.3945 17.6781 54.2864C17.3107 54.1784 16.9866 54.0487 16.7056 53.8974L16.9218 53.314H16.9434Z" fill="white"/>
</g>
</svg>
