<svg width="70" height="70" viewBox="0 0 70 70" fill="none" xmlns="http://www.w3.org/2000/svg">
<g id="Group 270">
<path id="Vector" d="M70 32.4968C70 14.5787 55.4213 0 37.5032 0C30.6757 0 23.9774 2.18325 18.4676 6.16219L18.7518 2.21555L16.2908 4.34712L15.9032 9.75357L21.3097 10.1411L23.7707 8.00955L20.1405 7.75118C25.1982 4.20502 31.2893 2.26076 37.5032 2.26076C54.1747 2.26076 67.7392 15.8253 67.7392 32.4968C67.7392 41.9597 63.3663 50.7315 55.951 56.4415C55.7185 54.2001 54.672 52.0815 52.9539 50.5312L49.9632 47.8248C48.7618 46.7332 47.2761 45.9774 45.6807 45.6415C45.0283 45.4994 44.3759 45.4284 43.7493 45.4284C41.1333 45.4284 38.6271 46.5394 36.8766 48.4772L35.1068 50.4408C34.4027 51.2224 33.8407 52.1008 33.4338 53.0633C26.2833 50.0791 20.4183 44.7114 16.8075 37.8451C18.1317 37.3219 19.3202 36.5016 20.2826 35.4358L22.0589 33.4786C23.719 31.6442 24.5652 29.2736 24.4424 26.7997C24.4295 26.5607 24.4037 26.3217 24.3714 26.0892C24.0936 23.8995 23.0408 21.8777 21.4001 20.3921L18.4094 17.6856C16.7042 16.1418 14.4951 15.2892 12.1956 15.2892C11.6982 15.2892 11.1815 15.3344 10.6195 15.4378C8.95945 15.722 7.40922 16.4583 6.13673 17.5564C5.81376 17.8342 5.54893 18.0861 5.3164 18.3445L3.54654 20.3016C3.30109 20.5665 3.06856 20.8636 2.84894 21.1736C0.904684 22.8854 -0.639093 26.677 0.265212 31.3535C0.478369 32.4645 0.743201 33.5884 1.06617 34.7834C6.16903 53.5284 22.5822 67.2867 41.9084 69.0178C42.3477 69.0566 42.7869 69.0759 43.2197 69.0759C45.0606 69.0759 46.824 68.7142 48.3871 68.0166C48.8587 67.8099 49.2527 67.6032 49.5692 67.403C50.4218 66.9121 51.184 66.2984 51.8299 65.5814L53.5998 63.6243C53.9486 63.2367 54.278 62.791 54.6074 62.2549C55.1436 61.3893 55.5247 60.4786 55.7378 59.5549C55.7572 59.4838 55.7637 59.4193 55.7766 59.3482C64.684 53.2764 69.9871 43.3097 69.9871 32.5033L70 32.4968ZM53.574 59.0382C53.4125 59.7293 53.1218 60.4204 52.7149 61.0858C52.4565 61.5056 52.2175 61.835 51.9527 62.1257L50.1764 64.0893C49.6854 64.6319 49.1106 65.097 48.4323 65.491C48.1675 65.6525 47.8575 65.814 47.4828 65.9819C45.9003 66.6924 44.04 66.9702 42.1087 66.7958C23.7125 65.1487 8.08099 52.0492 3.22358 34.1956C2.91353 33.0588 2.66162 31.9865 2.46138 30.9337C1.66688 26.8449 3.16545 23.8413 4.36042 22.8208C4.39272 22.7885 4.43147 22.7562 4.46377 22.7239L4.54774 22.6334C4.58004 22.5947 4.61233 22.5559 4.63817 22.5172C4.81257 22.2653 4.99989 22.0263 5.20013 21.8067L6.97644 19.843C7.14438 19.6557 7.34462 19.4684 7.59654 19.2488C8.56543 18.4155 9.74103 17.86 11.0071 17.6404C11.4463 17.5629 11.8338 17.5241 12.202 17.5241C13.946 17.5241 15.619 18.1701 16.9173 19.3392L19.9145 22.0456C21.174 23.1825 21.9556 24.681 22.1688 26.3669C22.1946 26.5478 22.214 26.7287 22.2204 26.9095C22.3173 28.7892 21.6714 30.5913 20.4118 31.9801L18.642 33.9373C17.7829 34.8868 16.6783 35.5844 15.4575 35.9526L14.9149 36.114C14.5984 36.2109 14.3465 36.437 14.2173 36.7406C14.0882 37.0442 14.0946 37.3865 14.2432 37.6772L14.4951 38.1746C18.4094 46.042 25.0625 52.1461 33.2336 55.3693L33.7051 55.5566C33.9893 55.6664 34.3058 55.6535 34.5836 55.5243C34.8613 55.3951 35.068 55.1561 35.1649 54.8719L35.3264 54.4004C35.6364 53.4831 36.1209 52.6499 36.7797 51.9264L38.5496 49.9628C39.8802 48.4901 41.7857 47.6439 43.7687 47.6439C44.2402 47.6439 44.7312 47.6956 45.235 47.8054C46.4493 48.0638 47.5733 48.6387 48.4905 49.4654L51.4811 52.1719C53.3802 53.8901 54.1941 56.519 53.5998 59.0252L53.574 59.0382Z" fill="white"/>
<g id="Group">
<path id="Vector_2" d="M39.2342 29.1896C40.1449 28.1303 40.61 26.9353 40.61 25.6241C40.61 24.0997 40.1255 22.8724 39.1696 21.981C38.22 21.0961 37.0057 20.6504 35.5523 20.6504C33.8212 20.6504 32.4713 21.2511 31.5346 22.4396C30.7531 23.4279 30.3526 24.6681 30.3526 26.1408V26.4638H32.5229V26.1408C32.5229 25.159 32.7555 24.3451 33.2205 23.7186C33.7373 23.0145 34.4607 22.6786 35.4296 22.6786C36.3985 22.6786 37.122 22.9757 37.6839 23.5829C38.1942 24.1449 38.4461 24.8231 38.4461 25.6499C38.4461 26.3023 38.2136 26.9547 37.7485 27.5812C37.5289 27.8784 37.0057 28.4339 36.1983 29.2284L30.2363 34.9836V36.7987H40.5325V34.7769H33.466L37.7162 30.7269C38.5172 29.9712 39.0145 29.4674 39.2406 29.2025L39.2342 29.1896Z" fill="white"/>
<path id="Vector_3" d="M51.0421 31.9931V20.9219H48.6974L41.1787 32.2192V34.0214H48.8782V36.7989H51.0485V34.0214H52.4244V31.9996H51.0485L51.0421 31.9931ZM43.8916 31.9931L48.8782 24.4422V31.9931H43.8916Z" fill="white"/>
</g>
</g>
</svg>
