<svg width="75" height="69" viewBox="0 0 75 69" fill="none" xmlns="http://www.w3.org/2000/svg">
<g id="Group 272">
<path id="Vector" d="M69.4464 12.8184C69.3881 12.6823 69.3103 12.585 69.213 12.4684L69.1353 12.3906C68.6491 11.8655 67.9101 11.6516 67.21 11.8266C66.51 12.0016 65.946 12.5656 65.771 13.2657C65.6154 13.888 65.2848 14.4325 64.8181 14.8797C63.9041 15.7354 62.5818 16.0076 61.3955 15.5993C60.112 15.152 59.237 13.9852 59.0036 12.41C59.0036 12.3322 59.0036 12.235 59.0036 12.1572C59.3731 10.4654 60.4232 9.33745 61.8817 9.08465C62.6012 8.94852 63.1846 8.44291 63.418 7.74284C63.6319 7.06221 63.4763 6.32324 62.9901 5.79818L58.1868 0.644836C57.9146 0.353137 57.5645 0.158672 57.1951 0.0808853C57.0978 0.0614388 57.0006 0.0419922 56.8839 0.0419922C56.3978 0.0419922 55.9505 0.236458 55.6004 0.547603L51.0305 4.70917C50.7582 4.08688 50.4082 3.52293 49.9415 3.01732C47.8024 0.722622 44.1464 0.547603 41.7739 2.66728C39.4792 4.86474 39.3431 8.44291 41.5017 10.7959C41.9684 11.3016 42.4935 11.7099 43.0963 12.0211L38.5847 16.241C38.468 16.3382 38.4097 16.4355 38.3708 16.5132C38.1374 16.8049 38.0013 17.155 37.9624 17.505C37.9624 17.6022 37.9624 17.6995 37.9624 17.8162C38.0207 18.2051 38.1958 18.5746 38.4486 18.8468L43.1935 24.0391C43.6797 24.5641 44.3992 24.7975 45.0993 24.6225C45.7994 24.4474 46.3633 23.9029 46.5578 23.2029C46.9467 21.7638 48.1524 20.8109 49.8637 20.5776C49.9415 20.5776 50.0387 20.5776 50.1165 20.5776C51.6722 20.9471 52.7612 21.8999 53.1113 23.2223C53.4224 24.4474 53.0529 25.7309 52.1195 26.5866C51.6528 27.0144 51.0694 27.3061 50.4471 27.4228C49.7276 27.5394 49.1247 28.0451 48.8914 28.7451C48.658 29.4258 48.8136 30.1647 49.2998 30.7092L49.3775 30.787C49.4748 30.8843 49.5915 30.9815 49.7081 31.0398L54.2392 35.9015C54.5503 36.2321 54.9782 36.4654 55.4449 36.5238C55.5032 36.5238 55.5421 36.5238 55.6004 36.5238C55.6588 36.5238 55.7171 36.5238 55.7755 36.5238C55.9894 36.4849 56.2033 36.4265 56.4172 36.3099C56.5144 36.2515 56.67 36.1737 56.8256 36.0376L61.7845 31.526C61.7845 31.526 61.9011 31.4093 61.94 31.351C62.3095 30.8454 62.4067 30.2036 62.2317 29.6202C62.0567 29.0368 61.6289 28.5701 61.0649 28.3562C60.5593 28.1617 60.1315 27.87 59.7815 27.4811C59.1592 26.8005 58.848 25.9059 58.9064 24.9725C58.9647 24.0391 59.3925 23.2029 60.112 22.6C60.1509 22.5806 60.1704 22.5417 60.2093 22.5222C60.8705 21.861 61.7456 21.511 62.679 21.511C63.6124 21.511 64.4681 21.8999 65.1098 22.5806C65.4793 22.9695 65.7321 23.4362 65.8877 23.9418C66.0627 24.5252 66.4711 24.9919 67.0545 25.2059C67.6379 25.4198 68.2796 25.3614 68.8047 25.0503C68.8825 25.0114 68.9408 24.9531 68.9991 24.8947L73.8997 20.3248C74.1914 20.0525 74.3858 19.7219 74.4636 19.333C74.4831 19.2163 74.5025 19.1191 74.5025 19.0024C74.5025 18.5357 74.3081 18.0884 73.9969 17.7384L69.5242 12.8184H69.4464ZM67.8907 22.5028C67.6379 21.9194 67.2684 21.3749 66.8211 20.9082C65.7321 19.7414 64.2347 19.0802 62.6401 19.0607C61.0455 19.0607 59.5675 19.6441 58.4396 20.772C57.234 21.8027 56.5144 23.2418 56.3978 24.8169C56.2811 26.4115 56.8256 27.9478 57.8951 29.1341C58.323 29.6202 58.848 30.0092 59.412 30.3203L55.5421 33.8401L51.6528 29.6591C52.4112 29.4063 53.1113 28.9979 53.7141 28.4534C55.3282 26.9949 55.9699 24.778 55.4254 22.6778C54.8615 20.4803 53.0529 18.8274 50.6221 18.2634C50.2526 18.1856 49.8637 18.1662 49.4942 18.2051C47.1023 18.5357 45.2549 19.8775 44.4381 21.8416L40.6655 17.6995L45.1576 13.5185C45.3521 13.3434 45.5077 13.1295 45.6049 12.8962C45.8772 12.41 45.9355 11.8461 45.7605 11.3016C45.5855 10.7376 45.1576 10.3098 44.6131 10.0959C44.1075 9.90141 43.6797 9.60971 43.3102 9.22078C42.0656 7.85952 42.1434 5.77873 43.4463 4.53415C44.8076 3.32846 46.9273 3.4257 48.1719 4.74806C48.5413 5.13699 48.7941 5.60371 48.9497 6.10932C49.1053 6.67327 49.5137 7.12055 50.0582 7.3539C50.5832 7.56782 51.1472 7.56782 51.6528 7.33446C51.9056 7.23722 52.1195 7.12055 52.314 6.94553L56.8645 2.80341L60.6954 6.90663C58.673 7.58726 57.1756 9.29856 56.67 11.671C56.5922 12.0405 56.5728 12.4295 56.6311 12.7989C57.0006 15.2687 58.498 17.1939 60.6371 17.9328C62.6984 18.6524 64.9542 18.1662 66.5489 16.6883C67.1323 16.1438 67.599 15.4826 67.9296 14.7436L71.78 18.9635L67.9685 22.5222L67.8907 22.5028Z" fill="white"/>
<path id="Vector_2" d="M7.83958 67.036C7.83958 68.125 8.73413 69.0001 9.82313 69.0001L32.5756 68.864C32.5756 68.864 32.6923 68.864 32.7506 68.8446C32.984 68.9418 33.2563 69.0001 33.5285 69.0001L40.5876 68.9612C40.5876 68.9612 40.7432 68.9612 40.821 68.9418C41.4238 68.8251 41.9294 68.4167 42.2017 67.8528C42.4739 67.2888 42.4545 66.6665 42.1822 66.122C41.8322 65.422 41.4044 63.9829 42.6101 62.1938C42.6489 62.1355 42.7267 62.0577 42.7851 62.0188C43.5629 61.4743 44.3797 61.2021 45.1964 61.2021C47.0439 61.2021 48.5607 62.7189 48.5802 64.5663C48.5802 65.1108 48.4635 65.6164 48.2301 66.0831C47.9579 66.6277 47.9579 67.2499 48.2301 67.7944C48.5024 68.3584 49.0274 68.7473 49.6303 68.864C49.7081 68.864 49.7858 68.8835 49.8831 68.8835L56.5921 68.8446C57.1172 68.8446 57.6228 68.6306 57.9923 68.2612C58.3618 67.8917 58.5757 67.3861 58.5562 66.861L58.5174 59.8602C58.5174 58.7712 57.6423 57.8961 56.5338 57.8961C56.1449 57.8961 55.7754 58.0128 55.4448 58.2267C54.9003 58.5768 54.278 58.7518 53.6168 58.7518C52.3528 58.7518 51.2249 58.0517 50.622 56.9433C49.9803 55.7376 50.1359 54.2985 51.0304 52.9762C51.0693 52.9178 51.1277 52.84 51.2054 52.8011C52.0027 52.2566 52.8001 51.9649 53.6168 51.9649C54.2586 51.9649 54.8808 52.14 55.4059 52.49C56.1838 52.9762 57.2533 52.8595 57.8756 52.2177C58.2451 51.8483 58.4396 51.3621 58.4396 50.837L58.4007 43.7974C58.4007 42.7084 57.5061 41.8333 56.4171 41.8333L50.4081 41.8722C50.622 41.2499 50.7193 40.6081 50.7193 39.947C50.6998 36.7577 48.094 34.1519 44.8853 34.1519C43.6018 34.1519 42.2989 34.5797 41.1127 35.377C41.2877 35.1242 41.4627 34.8714 41.5988 34.5991C42.6489 32.5961 42.4156 30.1653 40.996 28.1234C40.7821 27.8123 40.5098 27.54 40.1987 27.3261C38.4096 26.101 36.2899 25.7898 34.4814 26.4316L34.4425 20.4031C34.4425 19.3141 33.548 18.439 32.4589 18.439L26.4305 18.4779C27.0917 16.6111 26.7611 14.5497 25.4776 12.7217C25.2637 12.4106 24.9915 12.1383 24.6803 11.9244C23.5135 11.1271 22.2106 10.7188 20.9271 10.7188C19.3714 10.7188 17.8935 11.3216 16.785 12.43C15.6766 13.5385 15.0737 15.0164 15.0932 16.5722C15.0932 17.2528 15.2293 17.914 15.4432 18.5363L9.41476 18.5752C8.8897 18.5752 8.38409 18.7891 8.0146 19.1586C7.64512 19.528 7.4312 20.0337 7.45065 20.5587L7.48954 27.6178C7.48954 27.6178 7.48954 27.7734 7.50899 27.8512C7.70346 28.7652 8.50077 29.4264 9.4342 29.4264C9.74535 29.4264 10.037 29.3486 10.3287 29.2124C11.515 28.6096 12.9346 28.7457 14.257 29.6403C14.3153 29.6792 14.3931 29.7569 14.432 29.8153C15.346 31.1182 15.5015 32.5767 14.8792 33.7824C14.2958 34.9103 13.1485 35.6104 11.865 35.6104C11.34 35.6104 10.8344 35.4937 10.3676 35.2603C10.0954 35.1242 9.80369 35.0659 9.51199 35.0659C8.57855 35.0659 7.7618 35.7465 7.58678 36.6605C7.58678 36.7383 7.56733 36.8161 7.56733 36.8938L7.60622 43.6029C7.60622 43.7974 7.64512 43.9724 7.7229 44.128C7.7229 44.1669 7.7229 44.1863 7.7229 44.2252L7.7618 49.9814C5.89493 49.3202 3.83359 49.6508 2.00561 50.9343C1.69447 51.1482 1.42221 51.4204 1.2083 51.7316C-0.191852 53.7929 -0.386317 56.2237 0.683244 58.2267C1.71391 60.1519 3.69746 61.3187 5.85603 61.3187C6.51722 61.3187 7.19785 61.1826 7.82014 60.9687L7.85903 67.0166L7.83958 67.036ZM41.7933 43.4473C42.1433 42.8639 42.1822 42.1444 41.8711 41.5416C41.521 40.8415 41.0932 39.4024 42.2989 37.6328C42.3378 37.5745 42.4156 37.4967 42.4739 37.4578C43.2518 36.9133 44.0685 36.641 44.8853 36.641C46.7327 36.641 48.2496 38.1579 48.269 40.0053C48.269 40.5303 48.1523 41.0554 47.919 41.5221C47.6078 42.125 47.6467 42.825 47.9968 43.4084C48.3662 43.9918 48.9885 44.3613 49.7081 44.3613L55.9699 44.3224L56.0087 50.0786C54.0835 49.223 51.7694 49.4952 49.8247 50.837C49.5136 51.0509 49.2413 51.3232 49.0274 51.6538C47.6273 53.7151 47.4328 56.1459 48.4829 58.1295C49.4941 60.0353 51.4777 61.2409 53.6752 61.2409C54.5114 61.2409 55.3281 61.0465 56.0865 60.6964L56.1254 66.4332L50.7582 66.4721C50.9721 65.8692 51.0693 65.2275 51.0693 64.5663C51.0693 61.3771 48.444 58.7712 45.2353 58.7712C43.9324 58.7712 42.6295 59.1991 41.4433 60.0353C41.1321 60.2492 40.8599 60.5214 40.6459 60.8326C39.4014 62.6605 39.0902 64.7024 39.7514 66.5304L34.0341 66.5693L33.9952 60.2881C33.9952 59.1991 33.1007 58.324 32.0311 58.324C31.72 58.324 31.4088 58.4017 31.1366 58.5573C30.6504 58.8101 30.1254 58.9463 29.5614 58.9463C28.2974 58.9463 27.1695 58.2656 26.5666 57.1377C25.9249 55.932 26.0805 54.493 26.975 53.1706C27.0139 53.1123 27.0722 53.0345 27.15 52.9956C28.4724 52.0816 29.9114 51.926 31.0977 52.5289C31.8367 52.9178 32.7895 52.7622 33.3924 52.1594C33.7619 51.7899 33.9758 51.2843 33.9563 50.7592L33.9174 44.478L40.1792 44.4391C40.8793 44.4391 41.5016 44.0696 41.8516 43.4862L41.7933 43.4473ZM39.3819 41.9499H34.5786L34.5592 37.4578C35.162 37.6717 35.8038 37.7689 36.4844 37.7689C37.8651 37.7689 39.168 37.2633 40.1987 36.4077C39.0513 38.1968 38.7596 40.1609 39.4014 41.9499H39.3819ZM11.8845 38.0995C14.0625 38.0995 16.0266 36.8744 17.0184 34.9492C18.0685 32.9462 17.8351 30.5154 16.4155 28.4735C16.2016 28.1623 15.9294 27.8901 15.6182 27.6762C13.8291 26.451 11.7289 26.1399 9.92037 26.7816L9.88147 21.0643L16.1627 21.0254C16.8628 21.0254 17.4851 20.6559 17.8546 20.0531C18.2046 19.4697 18.2241 18.7502 17.9129 18.1473C17.6601 17.6612 17.524 17.1361 17.524 16.5916C17.524 15.6776 17.874 14.822 18.5158 14.1802C19.1575 13.5385 20.0131 13.1885 20.9271 13.1885C21.7244 13.1885 22.5217 13.4607 23.2996 13.9858C23.3774 14.0247 23.4357 14.083 23.4746 14.1608C24.3886 15.4637 24.5636 16.9028 23.9413 18.1084C23.6302 18.7113 23.6496 19.4308 24.0191 20.0142C24.3886 20.5976 25.0109 20.9671 25.711 20.9671L31.9922 20.9282L32.0311 27.19C32.0311 28.279 32.9257 29.1541 33.9952 29.1541C34.3064 29.1541 34.5981 29.0763 34.8898 28.9402C36.076 28.3373 37.4956 28.4735 38.7985 29.368C38.8569 29.4069 38.9347 29.4652 38.9735 29.543C39.8875 30.846 40.0431 32.3044 39.4208 33.5101C38.8374 34.638 37.6901 35.3381 36.4066 35.3381C35.8815 35.3381 35.3759 35.2214 34.9092 34.9881C34.1702 34.6186 33.2368 34.7742 32.634 35.3576C32.2645 35.727 32.0506 36.2327 32.0506 36.7772L32.0895 42.4945C31.9728 42.5917 31.8561 42.7084 31.7589 42.8445C31.7589 42.8445 31.6811 42.9806 31.6422 43.039L25.6332 43.0779C25.3609 43.0779 25.1081 42.9417 24.9915 42.7084C24.8553 42.4556 24.8748 42.1639 25.0304 41.9305C26.0805 40.2581 25.9638 38.1968 24.6803 36.3688C24.5442 36.1938 24.3886 36.0187 24.1941 35.9021C23.2024 35.2409 22.1717 34.8908 21.1216 34.8908C19.877 34.8908 18.7297 35.377 17.8546 36.2521C16.9795 37.1272 16.5128 38.294 16.5128 39.5191C16.5128 40.3942 16.7656 41.2304 17.2323 41.9694C17.3878 42.2028 17.4073 42.5139 17.2712 42.7667C17.135 43.0001 16.9017 43.1556 16.6294 43.1556L9.99815 43.1945L9.95926 37.8273C10.5621 38.0412 11.1844 38.1384 11.865 38.1384L11.8845 38.0995ZM5.79769 58.9074C4.53367 58.9074 3.38632 58.2267 2.78347 57.1183C2.14174 55.9126 2.29731 54.4735 3.19185 53.1512C3.23074 53.0928 3.28908 53.0345 3.34742 52.9762C4.65034 52.0622 6.08939 51.8871 7.29508 52.5094C7.91737 52.8206 8.63689 52.8011 9.22029 52.4317C9.80369 52.0622 10.1537 51.4399 10.1537 50.7398L10.1148 45.6254L16.6294 45.5865C17.7962 45.5865 18.8658 44.9447 19.4103 43.914C19.9742 42.8834 19.9159 41.6194 19.2742 40.6276C19.0603 40.2775 18.9436 39.8886 18.9436 39.4802C18.9436 38.8968 19.1575 38.3523 19.5659 37.944C20.3437 37.1661 21.5689 37.1078 22.7162 37.8273C23.1246 38.4301 23.6108 39.5386 22.9301 40.6081C22.3078 41.5999 22.2689 42.8639 22.8329 43.8752C23.3968 44.8864 24.4664 45.5087 25.6332 45.5087L31.3699 45.4698V50.0008C29.542 49.3591 27.4417 49.6897 25.6332 50.9537C25.3221 51.1676 25.0498 51.4399 24.8359 51.751C23.4357 53.8124 23.2413 56.2432 24.2914 58.2267C25.3026 60.1325 27.2862 61.3187 29.4836 61.3187C30.1448 61.3187 30.8254 61.2021 31.4477 60.9687L31.4866 66.2193C31.4866 66.2193 31.3894 66.336 31.3505 66.3943L10.2315 66.511L10.1926 60.2297C10.1926 59.5297 9.82313 58.8879 9.22029 58.5379C8.63689 58.1878 7.91737 58.1684 7.31453 58.4795C6.82836 58.7323 6.3033 58.8685 5.7588 58.8685L5.79769 58.9074Z" fill="white"/>
</g>
</svg>
