<svg width="54" height="69" viewBox="0 0 54 69" fill="none" xmlns="http://www.w3.org/2000/svg">
<g id="Group 271">
<path id="Vector" d="M50.9311 18.2217H43.2647V0.888233C43.2647 0.396687 42.868 0 42.3765 0H19.843C19.7309 0 19.6187 0.0258709 19.5066 0.068989C19.4549 0.0862362 19.4204 0.120731 19.3687 0.146602L10.7192 8.00272L10.676 8.04584C10.6243 8.10621 10.5898 8.15795 10.5726 8.20107L10.5122 8.29593C10.4691 8.39941 10.4518 8.50289 10.4518 8.53739L10.4346 18.2303H2.77681C1.25043 18.2303 0 19.4721 0 21.0071V56.433C0 57.9594 1.2418 59.2098 2.77681 59.2098H20.5328L19.7998 63.8493H16.4711C15.9796 63.8493 15.5829 64.246 15.5829 64.7375V68.0318C15.5829 68.5233 15.9796 68.92 16.4711 68.92H37.2454C37.737 68.92 38.1337 68.5233 38.1337 68.0318V64.7375C38.1337 64.246 37.737 63.8493 37.2454 63.8493H33.9253L33.1923 59.2098H50.9397C52.4748 59.2098 53.7166 57.968 53.7166 56.433V20.9899C53.7166 19.4635 52.4748 18.2131 50.9397 18.2131L50.9311 18.2217ZM17.3507 67.1349V65.6085H36.3572V67.1349H17.3507ZM21.5849 63.8407L22.3179 59.2012H31.39L32.123 63.8407H21.5763H21.5849ZM50.9311 57.4333H2.77681C2.22489 57.4333 1.76784 56.9849 1.76784 56.4244V51.1381H51.9401V56.4244C51.9401 56.9763 51.4917 57.4333 50.9311 57.4333ZM13.6253 7.74401L18.9633 2.88891V7.71814L13.6253 7.75264V7.74401ZM12.2111 41.7383V9.52048L19.8516 9.47736C20.3345 9.47736 20.7312 9.08068 20.7312 8.58913V1.76784H41.4969V41.7038L12.2111 41.7383ZM2.77681 19.9896H10.4432V42.6179C10.4432 42.8508 10.5381 43.075 10.7019 43.2388C10.8658 43.4027 11.0986 43.4976 11.3314 43.4976L42.3851 43.4631C42.868 43.4631 43.2647 43.0664 43.2647 42.5748V19.9809H50.9311C51.4917 19.9809 51.9401 20.4294 51.9401 20.9899V49.3616H1.76784V20.9899C1.76784 20.438 2.21627 19.9809 2.77681 19.9809V19.9896Z" fill="white"/>
<path id="Vector_2" d="M26.8536 51.5176C25.3273 51.5176 24.0854 52.7594 24.0854 54.2858C24.0854 55.8121 25.3273 57.0539 26.8536 57.0539C28.38 57.0539 29.6218 55.8121 29.6218 54.2858C29.6218 52.7594 28.38 51.5176 26.8536 51.5176ZM26.8536 55.2775C26.3017 55.2775 25.8533 54.829 25.8533 54.2771C25.8533 53.7252 26.3017 53.2768 26.8536 53.2768C27.4055 53.2768 27.854 53.7252 27.854 54.2771C27.854 54.829 27.4055 55.2775 26.8536 55.2775Z" fill="white"/>
<path id="Vector_3" d="M35.2362 28.6562H18.8599C18.3684 28.6562 17.9717 29.0529 17.9717 29.5445C17.9717 30.036 18.3684 30.4327 18.8599 30.4327H35.2362C35.7277 30.4327 36.1244 30.036 36.1244 29.5445C36.1244 29.0529 35.7277 28.6562 35.2362 28.6562Z" fill="white"/>
<path id="Vector_4" d="M27.923 35.3486H18.8682C18.3767 35.3486 17.98 35.7453 17.98 36.2369C17.98 36.7284 18.3767 37.1251 18.8682 37.1251H27.923C28.4146 37.1251 28.8113 36.7284 28.8113 36.2369C28.8113 35.7453 28.4146 35.3486 27.923 35.3486Z" fill="white"/>
<path id="Vector_5" d="M35.6325 16.2988H18.8682C18.3767 16.2988 17.98 16.6955 17.98 17.1871C17.98 17.6786 18.3767 18.0753 18.8682 18.0753H35.6325C36.1241 18.0753 36.5208 17.6786 36.5208 17.1871C36.5208 16.6955 36.1241 16.2988 35.6325 16.2988Z" fill="white"/>
<path id="Vector_6" d="M18.8682 24.7589H32.3124C32.804 24.7589 33.2007 24.3622 33.2007 23.8707C33.2007 23.3791 32.804 22.9824 32.3124 22.9824H18.8682C18.3767 22.9824 17.98 23.3791 17.98 23.8707C17.98 24.3622 18.3767 24.7589 18.8682 24.7589Z" fill="white"/>
</g>
</svg>
