<svg width="54" height="69" viewBox="0 0 54 69" fill="none" xmlns="http://www.w3.org/2000/svg">
<g id="Group 269">
<path id="Vector" d="M1.34834 32.5888C0.680763 32.538 0.107517 33.0024 0.0131858 33.6555C-0.0811457 34.3086 0.339718 34.9253 0.985526 35.0632C5.63679 36.0718 9.83817 36.5362 13.655 36.5362C31.7376 36.5362 41.0909 26.1888 47.7449 15.2028L51.7721 17.6191C52.193 17.8731 52.7227 17.8586 53.1218 17.5829C53.5282 17.3071 53.7313 16.821 53.6515 16.342L51.061 1.04582C50.9957 0.668497 50.7635 0.341965 50.4297 0.153302C50.096 -0.0281046 49.6896 -0.0498734 49.3413 0.095252L35.6487 5.90027C35.1988 6.08893 34.8941 6.53156 34.8868 7.01773C34.8723 7.51116 35.148 7.96105 35.5907 8.17874L39.7195 10.196C28.7045 34.4392 2.48032 32.6759 1.34834 32.5888ZM42.4986 10.0799C42.7599 9.47035 42.4986 8.75924 41.8964 8.46899L39.1608 7.13383L48.8624 3.01953L50.7272 14.0636L47.9626 12.4019C47.6796 12.2277 47.3313 12.1769 47.012 12.264C46.6855 12.3438 46.4098 12.5543 46.2429 12.8445C39.5308 24.2514 30.7435 34.3884 12.835 34.0328C22.5076 31.972 35.7213 26.167 42.5059 10.0799H42.4986Z" fill="white"/>
<path id="Vector_2" d="M5.37559 48.582C2.95925 48.582 1.05811 50.9476 1.05811 53.9589V63.3848C1.05811 66.4034 2.95199 68.7617 5.37559 68.7617H11.2749C13.6913 68.7617 15.5924 66.3962 15.5924 63.3848V53.9589C15.5924 50.9403 13.6985 48.582 11.2749 48.582H5.37559ZM13.0817 53.9589V63.3848C13.0817 64.9159 12.24 66.2583 11.2749 66.2583H5.37559C4.4105 66.2583 3.56877 64.9159 3.56877 63.3848V53.9589C3.56877 52.4279 4.4105 51.0854 5.37559 51.0854H11.2749C12.24 51.0854 13.0817 52.4279 13.0817 53.9589Z" fill="white"/>
<path id="Vector_3" d="M23.2115 39.7441C20.7952 39.7441 18.894 42.1097 18.894 45.121V63.3851C18.894 66.4037 20.7879 68.762 23.2115 68.762H29.1109C31.5272 68.762 33.4283 66.3964 33.4283 63.3851V45.121C33.4283 42.1024 31.5345 39.7441 29.1109 39.7441H23.2115ZM30.9177 45.121V63.3851C30.9177 64.9161 30.076 66.2585 29.1109 66.2585H23.2115C22.2464 66.2585 21.4047 64.9161 21.4047 63.3851V45.121C21.4047 43.59 22.2464 42.2476 23.2115 42.2476H29.1109C30.076 42.2476 30.9177 43.59 30.9177 45.121Z" fill="white"/>
<path id="Vector_4" d="M48.7027 29.1348H42.8033C40.387 29.1348 38.4858 31.5003 38.4858 34.5117V63.3844C38.4858 66.403 40.3797 68.7613 42.8033 68.7613H48.7027C51.119 68.7613 53.0201 66.3957 53.0201 63.3844V34.5117C53.0201 31.4931 51.1263 29.1348 48.7027 29.1348ZM50.5095 63.3844C50.5095 64.9154 49.6678 66.2578 48.7027 66.2578H42.8033C41.8382 66.2578 40.9965 64.9154 40.9965 63.3844V34.5117C40.9965 32.9806 41.8382 31.6382 42.8033 31.6382H48.7027C49.6678 31.6382 50.5095 32.9806 50.5095 34.5117V63.3844Z" fill="white"/>
</g>
</svg>
