<svg width="150" height="34" viewBox="0 0 150 34" fill="none" xmlns="http://www.w3.org/2000/svg">
<path d="M104.212 27.7729C102.46 27.7729 101.084 29.1429 101.084 30.8864C101.084 32.63 102.46 34 104.212 34C105.963 34 107.339 32.63 107.339 30.8864C107.339 29.1429 105.838 27.7729 104.212 27.7729Z" fill="#E53842"/>
<path d="M45.2877 4.23443C45.2877 5.97802 43.9116 7.34799 42.1601 7.34799C40.4087 7.34799 39.0325 5.97802 39.0325 4.23443C39.0325 2.49084 40.4087 1.12088 42.1601 1.12088C43.9116 1.12088 45.2877 2.49084 45.2877 4.23443ZM39.7831 33.6264H44.6622V10.5861H39.7831V33.6264ZM27.5229 33.6264H32.402V0H27.5229V33.6264ZM77.4395 0V33.6264H82.3186V0H77.4395ZM11.5096 14.696C14.6372 14.696 16.3887 16.315 17.3895 18.8059H22.3937C21.5179 13.8242 17.7648 10.2125 11.5096 10.2125C4.62886 10.2125 0 15.5678 0 22.1685C0 28.7692 4.62886 34 11.5096 34C17.7648 34 21.5179 30.3883 22.3937 25.4066H17.3895C16.3887 27.8974 14.6372 29.5165 11.5096 29.5165C7.63136 29.5165 4.75396 26.2784 4.75396 22.044C4.87907 17.9341 7.63136 14.696 11.5096 14.696ZM61.8015 14.696C64.9291 14.696 66.6806 16.315 67.6814 18.8059H72.6856C71.8098 13.8242 68.0567 10.2125 61.8015 10.2125C54.7957 10.2125 50.2919 15.4432 50.2919 22.044C50.2919 28.6447 54.9208 33.8755 61.8015 33.8755C68.0567 33.8755 71.8098 30.2637 72.6856 25.2821H67.6814C66.6806 27.7729 64.9291 29.3919 61.8015 29.3919C57.9233 29.3919 55.0459 26.1538 55.0459 21.9194C55.0459 17.9341 57.7982 14.696 61.8015 14.696ZM123.103 10.2125C121.351 10.2125 119.975 11.5824 119.975 13.326C119.975 15.0696 121.351 16.4396 123.103 16.4396C124.854 16.4396 126.23 15.0696 126.23 13.326C126.355 11.707 124.854 10.2125 123.103 10.2125ZM145.246 10.5861V24.2857C145.246 27.3993 143.119 29.5165 140.117 29.5165C137.114 29.5165 134.987 27.3993 134.987 24.2857V10.5861H130.108V24.2857C130.108 30.0147 134.487 34 139.992 34C145.496 34 150 30.0147 150 24.2857V10.5861H145.246ZM112.844 33.6264H117.723V10.5861H112.844V33.6264ZM97.8315 10.5861H91.9516L82.3186 21.6703L92.2018 33.5018H98.3319L88.3236 21.4212L97.8315 10.5861Z" fill="white"/>
</svg>
