<svg width="169" height="44" viewBox="0 0 169 44" fill="none" xmlns="http://www.w3.org/2000/svg">
<path d="M87.6719 33.8461V6.76923H98.9883C101.043 6.76923 102.806 7.15846 104.296 7.95384C105.802 8.7323 106.949 9.8323 107.754 11.2538C108.558 12.6585 108.969 14.2831 108.969 16.1446C108.969 18.0061 108.558 19.6477 107.72 21.0523C106.898 22.44 105.717 23.5231 104.193 24.2846C102.669 25.0462 100.872 25.4354 98.7829 25.4354H94.2974V33.8461H87.6719ZM94.2974 20.2738H97.5673C99.0568 20.2738 100.187 19.9015 100.957 19.1569C101.728 18.3954 102.121 17.3969 102.121 16.1446C102.121 14.8923 101.728 13.8938 100.957 13.1492C100.187 12.4046 99.0568 12.0323 97.5673 12.0323H94.2974V20.2738ZM117.29 34.1846C115.321 34.1846 113.712 33.6938 112.428 32.6954C111.161 31.7138 110.527 30.2077 110.527 28.1938C110.527 26.6877 110.87 25.5031 111.572 24.6231C112.274 23.7262 113.198 23.0831 114.345 22.66C115.509 22.22 116.776 21.9492 118.163 21.8477C119.926 21.6954 121.176 21.5092 121.912 21.2892C122.665 21.0692 123.042 20.6461 123.042 20.0369V19.9692C123.042 19.2923 122.802 18.7677 122.34 18.3954C121.861 18.0231 121.227 17.8369 120.423 17.8369C119.55 17.8369 118.865 18.0231 118.334 18.3954C117.803 18.7677 117.478 19.2754 117.324 19.9354L111.298 19.7323C111.554 17.8877 112.462 16.3477 114.003 15.1123C115.561 13.8938 117.718 13.2677 120.474 13.2677C122.22 13.2677 123.778 13.5385 125.148 14.08C126.517 14.6046 127.596 15.3831 128.384 16.3815C129.171 17.38 129.582 18.6154 129.582 20.0369V33.8461H123.436V31.02H123.282C122.135 33.1354 120.149 34.2015 117.324 34.2015L117.29 34.1846ZM119.31 29.9538C120.354 29.9538 121.244 29.6492 121.964 29.0231C122.7 28.4138 123.076 27.6015 123.076 26.62V24.6908C122.717 24.8769 122.186 25.0462 121.518 25.1815C120.851 25.3169 120.217 25.4185 119.618 25.52C117.684 25.8077 116.708 26.6031 116.708 27.9061C116.708 28.5831 116.947 29.0908 117.427 29.4461C117.906 29.8015 118.522 29.9708 119.293 29.9708L119.31 29.9538ZM143.158 34.2185C140.984 34.2185 139.135 33.7785 137.577 32.8985C136.036 32.0015 134.855 30.7831 134.016 29.2092C133.194 27.6354 132.766 25.8077 132.766 23.7431C132.766 21.6785 133.177 19.8338 134.016 18.2769C134.838 16.7031 136.036 15.4677 137.594 14.5877C139.152 13.7077 141.001 13.2677 143.141 13.2677C145.041 13.2677 146.702 13.6061 148.123 14.2831C149.544 14.96 150.64 15.9246 151.427 17.16C152.232 18.3954 152.66 19.8508 152.694 21.5092H146.582C146.462 20.4769 146.103 19.6477 145.521 19.0554C144.939 18.4631 144.185 18.1754 143.244 18.1754C142.097 18.1754 141.189 18.6492 140.488 19.5969C139.786 20.5277 139.443 21.8985 139.443 23.6754C139.443 25.4523 139.786 26.8569 140.47 27.8046C141.172 28.7354 142.097 29.2092 143.244 29.2092C144.151 29.2092 144.905 28.9215 145.504 28.3461C146.103 27.7708 146.48 26.9415 146.582 25.8754H152.694C152.643 27.5508 152.215 29.0061 151.444 30.2585C150.657 31.5108 149.561 32.4923 148.157 33.1861C146.754 33.88 145.093 34.2185 143.175 34.2185H143.158ZM167.64 13.5215V18.2769H163.942V27.4323C163.942 28.0246 164.079 28.4477 164.37 28.7015C164.661 28.9385 165.072 29.0569 165.603 29.0569C165.86 29.0569 166.116 29.04 166.39 28.9892C166.681 28.9385 166.887 28.8877 167.041 28.8538L168.034 33.5246C167.726 33.6092 167.281 33.7108 166.716 33.8461C166.151 33.9815 165.483 34.0661 164.678 34.1169C162.367 34.2185 160.569 33.7615 159.285 32.7631C158.019 31.7477 157.385 30.2077 157.402 28.16V18.2769H154.68V13.5215H157.402V8.64769H163.942V13.5215H167.64Z" fill="black"/>
<path fill-rule="evenodd" clip-rule="evenodd" d="M0 0H71.9046V33.8462H11.9841L0 44V0ZM11.9841 11.8462H59.9205V22H11.9841V11.8462Z" fill="#0066FF"/>
</svg>
