<svg width="743" height="35" viewBox="0 0 743 35" fill="none" xmlns="http://www.w3.org/2000/svg">
<path d="M611.109 33.8587L594.689 14.5987C594.539 14.4187 594.309 14.3187 594.079 14.3187H0.81C0.36 14.3187 0 13.9587 0 13.5087V11.1187C0 10.6687 0.36 10.3087 0.81 10.3087H595.919C596.159 10.3087 596.379 10.4087 596.529 10.5887L610.859 27.3987C611.199 27.7987 611.819 27.7687 612.119 27.3487L631.929 0.328701C632.229 -0.0812987 632.829 -0.111299 633.179 0.258701L642.139 10.0487C642.289 10.2187 642.509 10.3087 642.729 10.3087H700.299C700.749 10.3087 701.109 10.6687 701.109 11.1187V13.5087C701.109 13.9587 700.749 14.3187 700.299 14.3187H640.969C640.74 14.3187 640.529 14.2187 640.379 14.0587L633.529 6.5687C633.189 6.1887 632.589 6.2287 632.279 6.6387L612.379 33.8187C612.069 34.2387 611.449 34.2587 611.119 33.8687L611.109 33.8587Z" fill="#F15F79"/>
<path d="M729.289 10.3187H710.809C710.362 10.3187 709.999 10.6814 709.999 11.1287V13.5087C709.999 13.9561 710.362 14.3187 710.809 14.3187H729.289C729.736 14.3187 730.099 13.9561 730.099 13.5087V11.1287C730.099 10.6814 729.736 10.3187 729.289 10.3187Z" fill="#F15F79"/>
<path d="M742.189 10.3187H739.809C739.362 10.3187 738.999 10.6814 738.999 11.1287V13.5087C738.999 13.9561 739.362 14.3187 739.809 14.3187H742.189C742.636 14.3187 742.999 13.9561 742.999 13.5087V11.1287C742.999 10.6814 742.636 10.3187 742.189 10.3187Z" fill="#F15F79"/>
</svg>
