<svg width="164" height="35" viewBox="0 0 164 35" fill="none" xmlns="http://www.w3.org/2000/svg">
<path d="M43.9955 0L34.6241 27.4H29.0514L22.0731 7.11667L14.9775 27.4H9.37143L0 0H5.45551L12.4841 20.8333L19.7804 0H24.6167L31.7624 20.95L38.9918 0H43.9955Z" fill="#4CAF50"/>
<path d="M54.4049 6.26666C57.5845 6.26666 59.9943 7.01666 61.6678 8.5C63.358 9.96666 64.2114 12.1833 64.2114 15.15V27.4H59.442V24.85C58.8229 25.7667 57.9359 26.4667 56.7812 26.9667C55.6433 27.4333 54.271 27.6667 52.6645 27.6667C51.058 27.6667 49.6355 27.4 48.4306 26.8833C47.2257 26.3333 46.2718 25.5833 45.6024 24.65C44.9498 23.6833 44.6318 22.6 44.6318 21.4C44.6318 19.5167 45.3514 18.0167 46.7739 16.9C48.2298 15.75 50.5057 15.1833 53.6016 15.1833H59.1743V14.8667C59.1743 13.4 58.7225 12.2833 57.802 11.5C56.9151 10.7167 55.5763 10.3333 53.8025 10.3333C52.5976 10.3333 51.3927 10.5167 50.2045 10.8833C49.0498 11.25 48.0624 11.75 47.2592 12.4167L45.2845 8.85C46.4224 8.01666 47.778 7.38333 49.3678 6.93333C50.9576 6.48333 52.631 6.26666 54.4049 6.26666ZM53.7188 24.1167C54.9906 24.1167 56.0951 23.85 57.0657 23.3C58.0531 22.7333 58.7559 21.9167 59.1575 20.8667V18.4333H53.9531C51.0412 18.4333 49.602 19.3667 49.602 21.2167C49.602 22.1 49.9702 22.8167 50.6898 23.3333C51.4094 23.85 52.4302 24.1167 53.7188 24.1167Z" fill="#4CAF50"/>
<path d="M87.5055 23.4833V27.4H68.8965V24.3L80.7279 10.4H69.1475V6.48334H87.1875V9.58334L75.3226 23.4833H87.5055Z" fill="#4CAF50"/>
<path d="M108.993 23.4833V27.4H90.3838V24.3L102.215 10.4H90.6348V6.48334H108.675V9.58334L96.8099 23.4833H108.993Z" fill="#4CAF50"/>
<path d="M134.513 6.5V27.4H129.71V24.7333C128.907 25.6667 127.886 26.4 126.681 26.9333C125.476 27.4333 124.171 27.6833 122.765 27.6833C119.887 27.6833 117.611 26.9167 115.938 25.3667C114.298 23.8 113.478 21.4833 113.478 18.4333V6.5H118.515V17.7833C118.515 19.6667 118.95 21.0667 119.803 22.0167C120.69 22.9333 121.945 23.3833 123.552 23.3833C125.359 23.3833 126.782 22.85 127.836 21.7833C128.907 20.6833 129.442 19.1167 129.442 17.0833V6.5H134.48H134.513Z" fill="#4CAF50"/>
<path d="M153.056 6.26667C155.148 6.26667 157.022 6.71667 158.662 7.6C160.335 8.48333 161.641 9.73333 162.578 11.3667C163.515 12.9833 163.984 14.85 163.984 16.9667C163.984 19.0833 163.515 20.9667 162.578 22.6C161.641 24.2167 160.335 25.4667 158.662 26.35C157.022 27.2333 155.148 27.6833 153.056 27.6833C150.144 27.6833 147.851 26.75 146.161 24.8667V35H141.124V6.5H145.927V9.23333C146.764 8.23333 147.784 7.5 148.989 7C150.228 6.5 151.583 6.25 153.073 6.25L153.056 6.26667ZM152.487 23.5C154.344 23.5 155.867 22.9 157.055 21.7C158.26 20.5 158.88 18.9167 158.88 16.9667C158.88 15.0167 158.277 13.4333 157.055 12.2333C155.867 11.0333 154.344 10.4333 152.487 10.4333C151.282 10.4333 150.194 10.7 149.224 11.25C148.253 11.7667 147.483 12.5333 146.931 13.5167C146.362 14.5167 146.077 15.65 146.077 16.9667C146.077 18.2833 146.362 19.4167 146.931 20.4167C147.5 21.4 148.27 22.1833 149.224 22.7333C150.194 23.25 151.282 23.5167 152.487 23.5167V23.5Z" fill="#4CAF50"/>
</svg>
